Coordinates
version=1
nRows=24
nColumns=38
inDegrees=no

Units are S.I. units (second, meters, Newtons, ...)
If the header above contains a line with 'inDegrees', this indicates whether rotational values are in degrees (yes) or radians (no).

endheader
time	pelvis_tilt	pelvis_list	pelvis_rotation	pelvis_tx	pelvis_ty	pelvis_tz	hip_flexion_r	hip_adduction_r	hip_rotation_r	knee_angle_r	ankle_angle_r	subtalar_angle_r	mtp_angle_r	hip_flexion_l	hip_adduction_l	hip_rotation_l	knee_angle_l	ankle_angle_l	subtalar_angle_l	mtp_angle_l	lumbar_extension	lumbar_bending	lumbar_rotation	arm_flex_r	arm_add_r	arm_rot_r	elbow_flex_r	pro_sup_r	wrist_flex_r	wrist_dev_r	arm_flex_l	arm_add_l	arm_rot_l	elbow_flex_l	pro_sup_l	wrist_flex_l	wrist_dev_l
1.53	2.96411	1.35153	-1.19983	0.942782	1.09585	0.920007	0.108912	0.0740085	-0.355906	0.321084	-0.00976785	0	0	-0.181339	-0.220992	-0.213039	0.949921	-0.152711	0	0	-0.22295	0.0931849	-0.0223239	0.303443	-0.488138	-0.153022	1.57908	0	0	0	0.471388	-0.519327	0.188876	1.49953	0.870639	0	0
1.54	2.96944	1.34984	-1.2057	0.943453	1.10707	0.920883	0.0955398	0.0775155	-0.356239	0.324451	-0.000636206	0	0	-0.139184	-0.229722	-0.188449	1.01627	-0.223853	0	0	-0.226936	0.0914456	-0.0184212	0.302203	-0.489317	-0.156523	1.57994	0	0	0	0.476933	-0.521695	0.195358	1.50178	0.869021	0	0
1.55	2.97949	1.34729	-1.21604	0.94399	1.11799	0.922022	0.0821835	0.079385	-0.35119	0.329976	0.00556245	0	0	-0.0991062	-0.234251	-0.16299	1.07664	-0.277946	0	0	-0.233194	0.0893687	-0.0149483	0.301985	-0.490624	-0.159926	1.58159	0	0	0	0.482017	-0.523205	0.199147	1.50444	0.87014	0	0
1.56	2.99241	1.34454	-1.23004	0.944379	1.12871	0.92341	0.0698574	0.0795553	-0.342658	0.338052	0.0092664	0	0	-0.0622134	-0.234179	-0.139302	1.12935	-0.303328	0	0	-0.240508	0.0869172	-0.0108097	0.302444	-0.492823	-0.162403	1.5837	0	0	0	0.486013	-0.523254	0.200845	1.50813	0.867338	0	0
1.57	3.00577	1.34133	-1.24555	0.944687	1.13932	0.925078	0.0567608	0.0796128	-0.331011	0.344991	0.0121373	0	0	-0.028172	-0.231793	-0.118289	1.17714	-0.299779	0	0	-0.248276	0.0844986	-0.00541134	0.303125	-0.496191	-0.16356	1.58588	0	0	0	0.488915	-0.521411	0.201363	1.51183	0.863863	0	0
1.58	3.013	1.34071	-1.25622	0.944683	1.14979	0.926868	0.0461249	0.0798774	-0.319547	0.350402	0.0142212	0	0	0.00890565	-0.227958	-0.0987356	1.22462	-0.268401	0	0	-0.237568	0.07687	0.014002	0.289598	-0.501988	-0.176133	1.56439	0	0	0	0.516101	-0.503765	0.236102	1.47434	0.86612	0	0
1.59	3.03496	1.35136	-1.27856	0.945539	1.16106	0.928766	0.0419006	0.0760721	-0.313455	0.349273	0.0170814	0	0	0.0563261	-0.216875	-0.0768754	1.2665	-0.224817	0	0	-0.235629	0.0616972	-0.0096677	0.300994	-0.488497	-0.156936	1.55575	0	0	0	0.481006	-0.522193	0.192999	1.51924	0.875176	0	0
1.6	3.04704	1.33857	-1.29587	0.945385	1.17099	0.930726	0.0132482	0.0795724	-0.310805	0.34595	0.0237142	0	0	0.0778112	-0.215562	-0.0650523	1.3069	-0.173263	0	0	-0.261627	0.0732018	0.008593	0.304466	-0.499305	-0.169444	1.58728	0	0	0	0.488964	-0.512587	0.190082	1.52009	0.876694	0	0
1.61	3.06201	1.33907	-1.31521	0.945765	1.1816	0.932759	-0.00580427	0.0805004	-0.308055	0.334596	0.0266579	0	0	0.110991	-0.208794	-0.0534368	1.33614	-0.131887	0	0	-0.263609	0.0678549	0.0140791	0.303052	-0.498468	-0.172972	1.58718	0	0	0	0.487516	-0.510671	0.187775	1.5224	0.879076	0	0
1.62	3.07913	1.34071	-1.33725	0.946269	1.19213	0.934729	-0.0244397	0.0805463	-0.305882	0.32142	0.0282051	0	0	0.143872	-0.201021	-0.044153	1.3578	-0.0999164	0	0	-0.264182	0.061312	0.0204436	0.300813	-0.497889	-0.176491	1.58721	0	0	0	0.486816	-0.508932	0.186805	1.52351	0.881152	0	0
1.63	3.09299	1.34563	-1.35705	0.946583	1.20253	0.936595	-0.0384334	0.0796004	-0.302284	0.309179	0.0285314	0	0	0.178956	-0.192077	-0.0366046	1.37248	-0.0765185	0	0	-0.245755	0.0497987	0.0404817	0.285194	-0.500128	-0.189205	1.56401	0	0	0	0.509693	-0.493165	0.219254	1.48459	0.883779	0	0
1.64	3.12032	1.34501	-1.38914	0.947459	1.21284	0.938498	-0.0591547	0.0774011	-0.299071	0.296545	0.031173	0	0	0.205906	-0.183256	-0.0314674	1.37998	-0.0590972	0	0	-0.264314	0.0461874	0.0335074	0.298009	-0.499471	-0.176767	1.58784	0	0	0	0.486531	-0.506229	0.183092	1.52429	0.890882	0	0
1.65	-3.13009	1.35987	-1.42725	0.948433	1.22397	0.940396	-0.0635617	0.0713158	-0.291343	0.283698	0.0297655	0	0	0.245404	-0.169242	-0.0286983	1.37646	-0.0493509	0	0	-0.239856	0.0218834	0.0287135	0.292285	-0.487618	-0.169786	1.55532	0	0	0	0.477712	-0.511928	0.182365	1.52467	0.895222	0	0
1.66	-3.12122	1.34881	-1.44426	0.948492	1.23357	0.942152	-0.0935852	0.0724489	-0.282445	0.271815	0.033302	0	0	0.258284	-0.166306	-0.0300371	1.37431	-0.0318345	0	0	-0.262907	0.0313038	0.0478731	0.295792	-0.500444	-0.17702	1.58887	0	0	0	0.485342	-0.504387	0.180832	1.52197	0.893201	0	0
1.67	-3.10068	1.3498	-1.47219	0.949009	1.24389	0.943915	-0.111845	0.0700102	-0.273371	0.259097	0.0334969	0	0	0.280373	-0.158515	-0.0323515	1.36251	-0.0163633	0	0	-0.263134	0.0241554	0.0553175	0.295978	-0.502011	-0.174863	1.58961	0	0	0	0.484751	-0.504112	0.180265	1.52125	0.891756	0	0
1.68	-3.0817	1.35033	-1.49927	0.949542	1.2542	0.9456	-0.130787	0.0678872	-0.264087	0.245788	0.0332646	0	0	0.29988	-0.152085	-0.0376035	1.34558	0.00323012	0	0	-0.263423	0.0172074	0.0625463	0.296668	-0.502025	-0.17398	1.59011	0	0	0	0.483339	-0.504482	0.179292	1.521	0.891004	0	0
1.69	-3.07338	1.35329	-1.51801	0.949957	1.26479	0.947154	-0.149015	0.0683209	-0.24925	0.227536	0.0299889	0	0	0.319644	-0.154096	-0.0527749	1.324	0.022847	0	0	-0.244983	0.00798421	0.0852735	0.283094	-0.504247	-0.18318	1.5677	0	0	0	0.503407	-0.491205	0.210788	1.48305	0.891381	0	0
1.7	-3.05792	1.35453	-1.54233	0.9505	1.27513	0.948516	-0.167625	0.0666956	-0.240769	0.212553	0.0293991	0	0	0.335541	-0.149354	-0.0615206	1.29661	0.0416187	0	0	-0.244478	0.00199251	0.0927821	0.284022	-0.504751	-0.180244	1.56769	0	0	0	0.50051	-0.492259	0.208105	1.48476	0.891291	0	0
1.71	-3.0419	1.35066	-1.56658	0.951415	1.28551	0.949911	-0.196619	0.0671329	-0.22525	0.187163	0.0247536	0	0	0.343531	-0.145837	-0.0721158	1.26447	0.0583252	0	0	-0.264639	-0.000258463	0.0855063	0.299831	-0.50336	-0.163951	1.59319	0	0	0	0.474604	-0.507593	0.169977	1.52562	0.893436	0	0
1.72	-3.03175	1.35152	-1.58533	0.952	1.29583	0.950881	-0.216821	0.0666933	-0.214416	0.169056	0.022778	0	0	0.355359	-0.14272	-0.0828792	1.22838	0.0697338	0	0	-0.264292	-0.00544396	0.0922558	0.301626	-0.50317	-0.161161	1.59438	0	0	0	0.471491	-0.509018	0.166505	1.52727	0.893033	0	0
1.73	-3.02165	1.35275	-1.60358	0.95252	1.30611	0.951615	-0.235539	0.0656671	-0.205529	0.153189	0.0223436	0	0	0.365112	-0.139841	-0.0946871	1.18713	0.0783056	0	0	-0.263465	-0.0106472	0.0985029	0.303617	-0.502613	-0.159109	1.59555	0	0	0	0.468329	-0.51079	0.163584	1.52954	0.892871	0	0
1.74	-3.01351	1.35476	-1.61935	0.953052	1.31629	0.952055	-0.251296	0.0644448	-0.198906	0.141642	0.0234847	0	0	0.37365	-0.138048	-0.108663	1.14197	0.0844593	0	0	-0.261785	-0.0154025	0.104379	0.305694	-0.501465	-0.157435	1.59622	0	0	0	0.466014	-0.512682	0.160921	1.53098	0.894145	0	0
1.75	-2.98737	1.37472	-1.65347	0.953647	1.32736	0.952262	-0.246358	0.0601215	-0.189549	0.132413	0.0207245	0	0	0.396247	-0.132858	-0.125403	1.08676	0.0850971	0	0	-0.211202	-0.0396462	0.117909	0.285167	-0.489635	-0.163636	1.53637	0	0	0	0.481904	-0.505157	0.198408	1.49176	0.896065	0	0
1.76	-3.00362	1.35821	-1.64308	0.953844	1.33643	0.952271	-0.282358	0.0625135	-0.183609	0.120441	0.0261401	0	0	0.383421	-0.136199	-0.142349	1.04021	0.0949436	0	0	-0.259358	-0.0232877	0.114818	0.310729	-0.49918	-0.154158	1.59833	0	0	0	0.461543	-0.514439	0.151928	1.53451	0.895762	0	0
